<svg xmlns="http://www.w3.org/2000/svg" version="1.1" width="3300" height="2000"><g id="Notes"><style>
    text {
      font-family: monospace;
      text-anchor: middle;
    }
    text.emphasis {
      font-weight:bold;
    }
    text.lanchor {
      text-anchor: start;
    }
  </style><rect height="2200" id="artboard" fill="white" width="3300" x="0" y="0"/><line id="" style="fill:none;stroke:black;stroke-width:0.5;" x1="263" x2="3036" y1="292" y2="292"/><text class="lanchor emphasis" transform="matrix(1 0 0 1 263 322)">Weight/Scale Variations</text><text transform="matrix(1 0 0 1 559.711 322)">Ultralight</text><text transform="matrix(1 0 0 1 856.422 322)">Thin</text><text transform="matrix(1 0 0 1 1153.13 322)">Light</text><text transform="matrix(1 0 0 1 1449.84 322)">Regular</text><text transform="matrix(1 0 0 1 1746.56 322)">Medium</text><text transform="matrix(1 0 0 1 2043.27 322)">Semibold</text><text transform="matrix(1 0 0 1 2339.98 322)">Bold</text><text transform="matrix(1 0 0 1 2636.69 322)">Heavy</text><text transform="matrix(1 0 0 1 2933.4 322)">Black</text><text id="template-version" style="text-anchor: end;" transform="matrix(1 0 0 1 3036 1933)">Template v.1.0</text><text class="lanchor" transform="matrix(1 0 0 1 263 726)">Small</text><text class="lanchor" transform="matrix(1 0 0 1 263 1156)">Medium</text><text class="lanchor" transform="matrix(1 0 0 1 263 1586)">Large</text></g><g id="Guides"><g id="H-reference" style="fill:#27AAE1;stroke:none;" transform="matrix(1 0 0 1 339 696)"><path d="M 54.9316 0 L 57.666 0 L 30.5664 -70.459 L 28.0762 -70.459 L 0.976562 0 L 3.66211 0 L 12.9395 -24.4629 L 45.7031 -24.4629 Z M 29.1992 -67.0898 L 29.4434 -67.0898 L 44.8242 -26.709 L 13.8184 -26.709 Z"/></g><line id="Baseline-S" style="fill:none;stroke:#27AAE1;opacity:1;stroke-width:0.577;" x1="263" x2="3036" y1="696" y2="696"/><line id="Capline-S" style="fill:none;stroke:#27AAE1;opacity:1;stroke-width:0.577;" x1="263" x2="3036" y1="625.541" y2="625.541"/><g id="H-reference" style="fill:#27AAE1;stroke:none;" transform="matrix(1 0 0 1 339 1126)"><path d="M 54.9316 0 L 57.666 0 L 30.5664 -70.459 L 28.0762 -70.459 L 0.976562 0 L 3.66211 0 L 12.9395 -24.4629 L 45.7031 -24.4629 Z M 29.1992 -67.0898 L 29.4434 -67.0898 L 44.8242 -26.709 L 13.8184 -26.709 Z"/></g><line id="Baseline-M" style="fill:none;stroke:#27AAE1;opacity:1;stroke-width:0.577;" x1="263" x2="3036" y1="1126" y2="1126"/><line id="Capline-M" style="fill:none;stroke:#27AAE1;opacity:1;stroke-width:0.577;" x1="263" x2="3036" y1="1055.54" y2="1055.54"/><g id="H-reference" style="fill:#27AAE1;stroke:none;" transform="matrix(1 0 0 1 339 1556)"><path d="M 54.9316 0 L 57.666 0 L 30.5664 -70.459 L 28.0762 -70.459 L 0.976562 0 L 3.66211 0 L 12.9395 -24.4629 L 45.7031 -24.4629 Z M 29.1992 -67.0898 L 29.4434 -67.0898 L 44.8242 -26.709 L 13.8184 -26.709 Z"/></g><line id="Baseline-L" style="fill:none;stroke:#27AAE1;opacity:1;stroke-width:0.577;" x1="263" x2="3036" y1="1556" y2="1556"/><line id="Capline-L" style="fill:none;stroke:#27AAE1;opacity:1;stroke-width:0.577;" x1="263" x2="3036" y1="1485.54" y2="1485.54"/><rect height="119.336" id="left-margin" style="fill:darkred;stroke:none;opacity:0.4;" width="12.4512" x="1394.06" y="1030.79"/><rect height="119.336" id="right-margin" style="fill:darkgreen;stroke:none;opacity:0.4;" width="12.4512" x="1502.5112" y="1030.79"/><rect x="1406.5112" y="1045" width="96" height="96" fill="none" stroke="blue" stroke-dasharray="5"/><rect x="1394.06" y="1030.79" width="120.9024" height="119.336" fill="none" stroke="blue"/></g><g id="Symbols"><g id="Bold-L" transform="matrix(1 0 0 1 2266 1556)"><path d="M36.926 33.301 Q30.629 33.301 26.2 28.872 Q21.769 24.441 21.769 18.144 V-48.614 Q21.769 -54.741 26.2 -59.256 Q30.629 -63.771 36.926 -63.771 H59.985 V-48.614 H36.926 Q36.926 -48.614 36.926 -48.614 Q36.926 -48.614 36.926 -48.614 V18.144 Q36.926 18.144 36.926 18.144 Q36.926 18.144 36.926 18.144 H117.874 Q117.874 18.144 117.874 18.144 Q117.874 18.144 117.874 18.144 V-48.614 Q117.874 -48.614 117.874 -48.614 Q117.874 -48.614 117.874 -48.614 H94.493 V-63.771 H117.874 Q124.237 -63.771 128.715 -59.256 Q133.192 -54.741 133.192 -48.614 V18.144 Q133.192 24.441 128.715 28.872 Q124.237 33.301 117.874 33.301 H36.926 Z M69.66 -9.591 V-81.831 L55.47 -67.641 L44.666 -78.284 L77.239 -111.017 L109.811 -78.284 L99.008 -67.641 L84.817 -81.831 V-9.591 H69.66 Z"/></g><g id="Semibold-L" transform="matrix(1 0 0 1 1970.27 1556)"><path d="M36.296 31.548 Q31.054 31.548 27.287 27.783 Q23.522 24.016 23.522 18.774 V-51.839 Q23.522 -56.984 27.287 -60.798 Q31.054 -64.613 36.296 -64.613 H61.177 V-51.839 H36.296 Q36.296 -51.839 36.296 -51.839 Q36.296 -51.839 36.296 -51.839 V18.774 Q36.296 18.774 36.296 18.774 Q36.296 18.774 36.296 18.774 H118.504 Q118.504 18.774 118.504 18.774 Q118.504 18.774 118.504 18.774 V-51.839 Q118.504 -51.839 118.504 -51.839 Q118.504 -51.839 118.504 -51.839 H93.301 V-64.613 H118.504 Q123.784 -64.613 127.576 -60.798 Q131.37 -56.984 131.37 -51.839 V18.774 Q131.37 24.016 127.576 27.783 Q123.784 31.548 118.504 31.548 H36.296 Z M70.852 -11.413 V-84.285 L56.662 -70.095 L47.54 -79.125 L77.239 -108.915 L106.938 -79.125 L97.816 -70.095 L83.626 -84.285 V-11.413 H70.852 Z"/></g><g id="Medium-L" transform="matrix(1 0 0 1 1674.31 1556)"><path d="M35.822 30.234 Q31.371 30.234 28.104 26.966 Q24.836 23.699 24.836 19.248 V-54.257 Q24.836 -58.668 28.104 -61.956 Q31.371 -65.243 35.822 -65.243 H62.07 V-54.257 H35.822 Q35.822 -54.257 35.822 -54.257 Q35.822 -54.257 35.822 -54.257 V19.248 Q35.822 19.248 35.822 19.248 Q35.822 19.248 35.822 19.248 H118.978 Q118.978 19.248 118.978 19.248 Q118.978 19.248 118.978 19.248 V-54.257 Q118.978 -54.257 118.978 -54.257 Q118.978 -54.257 118.978 -54.257 H92.408 V-65.243 H118.978 Q123.445 -65.243 126.723 -61.956 Q130.003 -58.668 130.003 -54.257 V19.248 Q130.003 23.699 126.723 26.966 Q123.445 30.234 118.978 30.234 H35.822 Z M71.745 -12.781 V-86.125 L57.555 -71.935 L49.697 -79.756 L77.239 -107.336 L104.78 -79.756 L96.923 -71.935 L82.733 -86.125 V-12.781 H71.745 Z"/></g><g id="Regular-L" transform="matrix(1 0 0 1 1378.56 1556)"><path d="M35.475 29.27 Q31.605 29.27 28.703 26.368 Q25.8 23.465 25.8 19.595 V-56.031 Q25.8 -59.901 28.703 -62.804 Q31.605 -65.706 35.475 -65.706 H62.726 V-56.031 H35.475 Q35.475 -56.031 35.475 -56.031 Q35.475 -56.031 35.475 -56.031 V19.595 Q35.475 19.595 35.475 19.595 Q35.475 19.595 35.475 19.595 H119.325 Q119.325 19.595 119.325 19.595 Q119.325 19.595 119.325 19.595 V-56.031 Q119.325 -56.031 119.325 -56.031 Q119.325 -56.031 119.325 -56.031 H91.751 V-65.706 H119.325 Q123.195 -65.706 126.097 -62.804 Q129 -59.901 129 -56.031 V19.595 Q129 23.465 126.097 26.368 Q123.195 29.27 119.325 29.27 H35.475 Z M72.401 -13.784 V-87.475 L58.211 -73.285 L51.278 -80.219 L77.239 -106.18 L103.2 -80.219 L96.266 -73.285 L82.076 -87.475 V-13.784 H72.401 Z"/></g><g id="Light-L" transform="matrix(1 0 0 1 1082.77 1556)"><path d="M38.328 26.045 Q34.533 26.045 31.779 23.291 Q29.025 20.537 29.025 16.742 V-51.937 Q29.025 -55.731 31.779 -58.485 Q34.533 -61.241 38.328 -61.241 H60.617 V-53.922 H38.328 Q37.584 -53.922 36.963 -53.303 Q36.344 -52.682 36.344 -51.937 V16.742 Q36.344 17.486 36.963 18.107 Q37.584 18.726 38.328 18.726 H116.472 Q117.216 18.726 117.837 18.107 Q118.456 17.486 118.456 16.742 V-51.937 Q118.456 -52.682 117.837 -53.303 Q117.216 -53.922 116.472 -53.922 H93.985 V-61.241 H116.472 Q120.267 -61.241 123.021 -58.485 Q125.775 -55.731 125.775 -51.937 V16.742 Q125.775 20.537 123.021 23.291 Q120.267 26.045 116.472 26.045 H38.328 Z M73.641 -14.218 V-86.545 L58.893 -71.797 L53.572 -77.055 L77.3 -100.722 L100.967 -77.055 L95.708 -71.797 L80.96 -86.545 V-14.218 H73.641 Z"/></g><g id="Thin-L" transform="matrix(1 0 0 1 787.282 1556)"><path d="M41.18 22.82 Q37.463 22.82 34.856 20.214 Q32.25 17.607 32.25 13.89 V-47.845 Q32.25 -51.563 34.856 -54.169 Q37.463 -56.776 41.18 -56.776 H58.51 V-51.815 H41.18 Q39.692 -51.815 38.452 -50.573 Q37.212 -49.333 37.212 -47.845 V13.89 Q37.212 15.378 38.452 16.618 Q39.692 17.858 41.18 17.858 H113.62 Q115.108 17.858 116.348 16.618 Q117.588 15.378 117.588 13.89 V-47.845 Q117.588 -49.333 116.348 -50.573 Q115.108 -51.815 113.62 -51.815 H96.216 V-56.776 H113.62 Q117.337 -56.776 119.944 -54.169 Q122.55 -51.563 122.55 -47.845 V13.89 Q122.55 17.607 119.944 20.214 Q117.337 22.82 113.62 22.82 H41.18 Z M74.881 -14.651 V-85.614 L59.575 -70.308 L55.867 -73.893 L77.363 -95.265 L98.735 -73.893 L95.15 -70.308 L79.843 -85.614 V-14.651 H74.881 Z"/></g><g id="Ultralight-L" transform="matrix(1 0 0 1 491.205 1556)"><path d="M42.892 20.885 Q39.221 20.885 36.702 18.368 Q34.185 15.849 34.185 12.178 V-45.389 Q34.185 -49.062 36.702 -51.579 Q39.221 -54.096 42.892 -54.096 H57.244 V-50.549 H42.892 Q40.958 -50.549 39.345 -48.936 Q37.733 -47.324 37.733 -45.389 V12.178 Q37.733 14.113 39.345 15.725 Q40.958 17.338 42.892 17.338 H111.907 Q113.843 17.338 115.455 15.725 Q117.068 14.113 117.068 12.178 V-45.389 Q117.068 -47.324 115.455 -48.936 Q113.843 -50.549 111.907 -50.549 H97.556 V-54.096 H111.907 Q115.581 -54.096 118.098 -51.579 Q120.615 -49.062 120.615 -45.389 V12.178 Q120.615 15.849 118.098 18.368 Q115.581 20.885 111.907 20.885 H42.892 Z M75.626 -14.912 V-85.056 L59.985 -69.415 L57.244 -71.995 L77.4 -91.99 L97.395 -71.995 L94.815 -69.415 L79.174 -85.056 V-14.912 H75.626 Z"/></g><g id="Bold-M" transform="matrix(1 0 0 1 2281.8 1126)"><path d="M31.5 19.02 Q24.875 19.02 20.312 14.458 Q15.75 9.895 15.75 3.27 V-37.48 Q15.75 -44.105 20.312 -48.667 Q24.875 -53.23 31.5 -53.23 H42.125 V-37.48 H31.5 Q31.5 -37.48 31.5 -37.48 Q31.5 -37.48 31.5 -37.48 V3.27 Q31.5 3.27 31.5 3.27 Q31.5 3.27 31.5 3.27 H88.5 Q88.5 3.27 88.5 3.27 Q88.5 3.27 88.5 3.27 V-37.48 Q88.5 -37.48 88.5 -37.48 Q88.5 -37.48 88.5 -37.48 H77.875 V-53.23 H88.5 Q95.125 -53.23 99.688 -48.667 Q104.25 -44.105 104.25 -37.48 V3.27 Q104.25 9.895 99.688 14.458 Q95.125 19.02 88.5 19.02 H31.5 Z M52.125 -10.855 V-65.23 L44.125 -57.23 L33.125 -68.23 L60 -95.23 L86.875 -68.23 L75.875 -57.23 L67.875 -65.23 V-10.855 H52.125 Z"/></g><g id="Semibold-M" transform="matrix(1 0 0 1 1985.97 1126)"><path d="M30.848 17.173 Q25.31 17.173 21.454 13.316 Q17.598 9.46 17.598 3.923 V-40.849 Q17.598 -46.387 21.454 -50.244 Q25.31 -54.1 30.848 -54.1 H43.375 V-40.849 H30.848 Q30.848 -40.849 30.848 -40.849 Q30.848 -40.849 30.848 -40.849 V3.923 Q30.848 3.923 30.848 3.923 Q30.848 3.923 30.848 3.923 H89.153 Q89.153 3.923 89.153 3.923 Q89.153 3.923 89.153 3.923 V-40.849 Q89.153 -40.849 89.153 -40.849 Q89.153 -40.849 89.153 -40.849 H76.625 V-54.1 H89.153 Q94.69 -54.1 98.546 -50.244 Q102.403 -46.387 102.403 -40.849 V3.923 Q102.403 9.46 98.546 13.316 Q94.69 17.173 89.153 17.173 H30.848 Z M53.375 -12.757 V-67.784 L45.375 -59.784 L36.114 -69.1 L60 -93.056 L83.886 -69.1 L74.625 -59.784 L66.625 -67.784 V-12.757 H53.375 Z"/></g><g id="Medium-M" transform="matrix(1 0 0 1 1689.91 1126)"><path d="M30.359 15.786 Q25.636 15.786 22.31 12.46 Q18.984 9.134 18.984 4.411 V-43.376 Q18.984 -48.1 22.31 -51.426 Q25.636 -54.751 30.359 -54.751 H44.312 V-43.376 H30.359 Q30.359 -43.376 30.359 -43.376 Q30.359 -43.376 30.359 -43.376 V4.411 Q30.359 4.411 30.359 4.411 Q30.359 4.411 30.359 4.411 H89.641 Q89.641 4.411 89.641 4.411 Q89.641 4.411 89.641 4.411 V-43.376 Q89.641 -43.376 89.641 -43.376 Q89.641 -43.376 89.641 -43.376 H75.688 V-54.751 H89.641 Q94.364 -54.751 97.69 -51.426 Q101.016 -48.1 101.016 -43.376 V4.411 Q101.016 9.134 97.69 12.46 Q94.364 15.786 89.641 15.786 H30.359 Z M54.312 -14.184 V-69.7 L46.312 -61.7 L38.356 -69.751 L60 -91.426 L81.644 -69.751 L73.688 -61.7 L65.688 -69.7 V-14.184 H54.312 Z"/></g><g id="Regular-M" transform="matrix(1 0 0 1 1394.06 1126)"><path d="M30 14.77 Q25.875 14.77 22.938 11.833 Q20 8.895 20 4.77 V-45.23 Q20 -49.355 22.938 -52.292 Q25.875 -55.23 30 -55.23 H45 V-45.23 H30 Q30 -45.23 30 -45.23 Q30 -45.23 30 -45.23 V4.77 Q30 4.77 30 4.77 Q30 4.77 30 4.77 H90 Q90 4.77 90 4.77 Q90 4.77 90 4.77 V-45.23 Q90 -45.23 90 -45.23 Q90 -45.23 90 -45.23 H75 V-55.23 H90 Q94.125 -55.23 97.062 -52.292 Q100 -49.355 100 -45.23 V4.77 Q100 8.895 97.062 11.833 Q94.125 14.77 90 14.77 H30 Z M55 -15.23 V-71.105 L47 -63.105 L40 -70.23 L60 -90.23 L80 -70.23 L73 -63.105 L65 -71.105 V-15.23 H55 Z"/></g><g id="Light-M" transform="matrix(1 0 0 1 1098.18 1126)"><path d="M31.539 12.27 Q27.75 12.27 25.125 9.645 Q22.5 7.02 22.5 3.231 V-43.691 Q22.5 -47.48 25.125 -50.105 Q27.75 -52.73 31.539 -52.73 H44.326 V-45.23 H31.539 Q30.961 -45.23 30.481 -44.749 Q30 -44.269 30 -43.691 V3.231 Q30 3.809 30.481 4.289 Q30.961 4.77 31.539 4.77 H88.461 Q89.039 4.77 89.519 4.289 Q90 3.809 90 3.231 V-43.691 Q90 -44.269 89.519 -44.749 Q89.039 -45.23 88.461 -45.23 H75.674 V-52.73 H88.461 Q92.25 -52.73 94.875 -50.105 Q97.5 -47.48 97.5 -43.691 V3.231 Q97.5 7.02 94.875 9.645 Q92.25 12.27 88.461 12.27 H31.539 Z M56.25 -16.48 V-71.634 L47 -62.384 L41.731 -67.73 L60 -85.999 L78.269 -67.73 L73 -62.384 L63.75 -71.634 V-16.48 H56.25 Z"/></g><g id="Thin-M" transform="matrix(1 0 0 1 802.565 1126)"><path d="M33.078 9.77 Q29.625 9.77 27.312 7.458 Q25 5.145 25 1.693 V-42.152 Q25 -45.605 27.312 -47.917 Q29.625 -50.23 33.078 -50.23 H43.654 V-45.23 H33.078 Q31.922 -45.23 30.961 -44.269 Q30 -43.307 30 -42.152 V1.693 Q30 2.848 30.961 3.809 Q31.922 4.77 33.078 4.77 H86.922 Q88.078 4.77 89.039 3.809 Q90 2.848 90 1.693 V-42.152 Q90 -43.307 89.039 -44.269 Q88.078 -45.23 86.922 -45.23 H76.346 V-50.23 H86.922 Q90.375 -50.23 92.688 -47.917 Q95 -45.605 95 -42.152 V1.693 Q95 5.145 92.688 7.458 Q90.375 9.77 86.922 9.77 H33.078 Z M57.5 -17.73 V-72.162 L47 -61.662 L43.461 -65.23 L60 -81.769 L76.539 -65.23 L73 -61.662 L62.5 -72.162 V-17.73 H57.5 Z"/></g><g id="Ultralight-M" transform="matrix(1 0 0 1 506.415 1126)"><path d="M34 8.27 Q30.75 8.27 28.625 6.145 Q26.5 4.02 26.5 0.77 V-41.23 Q26.5 -44.48 28.625 -46.605 Q30.75 -48.73 34 -48.73 H43.25 V-45.23 H34 Q32.5 -45.23 31.25 -43.98 Q30 -42.73 30 -41.23 V0.77 Q30 2.27 31.25 3.52 Q32.5 4.77 34 4.77 H86 Q87.5 4.77 88.75 3.52 Q90 2.27 90 0.77 V-41.23 Q90 -42.73 88.75 -43.98 Q87.5 -45.23 86 -45.23 H76.75 V-48.73 H86 Q89.25 -48.73 91.375 -46.605 Q93.5 -44.48 93.5 -41.23 V0.77 Q93.5 4.02 91.375 6.145 Q89.25 8.27 86 8.27 H34 Z M58.25 -18.48 V-72.48 L47 -61.23 L44.5 -63.73 L60 -79.23 L75.5 -63.73 L73 -61.23 L61.75 -72.48 V-18.48 H58.25 Z"/></g><g id="Bold-S" transform="matrix(1 0 0 1 2294.23 696)"><path d="M27.193 5.995 Q22.289 5.995 18.936 2.627 Q15.583 -0.741 15.583 -5.642 V-36.216 Q15.583 -41.118 18.951 -44.486 Q22.319 -47.854 27.221 -47.854 H35.604 V-36.216 H27.221 Q27.221 -36.216 27.221 -36.216 Q27.221 -36.216 27.221 -36.216 V-5.642 Q27.221 -5.642 27.221 -5.642 Q27.221 -5.642 27.221 -5.642 H67.46 Q67.46 -5.642 67.46 -5.642 Q67.46 -5.642 67.46 -5.642 V-36.216 Q67.46 -36.216 67.46 -36.216 Q67.46 -36.216 67.46 -36.216 H59.076 V-47.854 H67.46 Q72.391 -47.854 75.744 -44.486 Q79.097 -41.118 79.097 -36.216 V-5.642 Q79.097 -0.741 75.728 2.627 Q72.359 5.995 67.456 5.995 H27.193 Z M41.521 -17.576 V-59.59 L35.9 -53.969 L27.714 -62.056 L47.34 -81.781 L66.966 -62.056 L58.781 -53.969 L53.159 -59.59 V-17.576 H41.521 Z"/></g><g id="Semibold-S" transform="matrix(1 0 0 1 1998.1 696)"><path d="M26.678 4.538 Q22.632 4.538 19.836 1.727 Q17.04 -1.084 17.04 -5.128 V-38.874 Q17.04 -42.919 19.851 -45.73 Q22.662 -48.54 26.706 -48.54 H36.59 V-38.874 H26.706 Q26.706 -38.874 26.706 -38.874 Q26.706 -38.874 26.706 -38.874 V-5.128 Q26.706 -5.128 26.706 -5.128 Q26.706 -5.128 26.706 -5.128 H67.974 Q67.974 -5.128 67.974 -5.128 Q67.974 -5.128 67.974 -5.128 V-38.874 Q67.974 -38.874 67.974 -38.874 Q67.974 -38.874 67.974 -38.874 H58.09 V-48.54 H67.974 Q72.048 -48.54 74.844 -45.73 Q77.64 -42.919 77.64 -38.874 V-5.128 Q77.64 -1.084 74.828 1.727 Q72.016 4.538 67.97 4.538 H26.678 Z M42.507 -19.077 V-61.605 L36.886 -55.984 L30.072 -62.742 L47.34 -80.066 L64.608 -62.742 L57.794 -55.984 L52.173 -61.605 V-19.077 H42.507 Z"/></g><g id="Medium-S" transform="matrix(1 0 0 1 1701.85 696)"><path d="M26.292 3.444 Q22.89 3.444 20.512 1.051 Q18.134 -1.341 18.134 -4.742 V-40.868 Q18.134 -44.27 20.527 -46.663 Q22.919 -49.054 26.32 -49.054 H37.33 V-40.868 H26.32 Q26.32 -40.868 26.32 -40.868 Q26.32 -40.868 26.32 -40.868 V-4.742 Q26.32 -4.742 26.32 -4.742 Q26.32 -4.742 26.32 -4.742 H68.36 Q68.36 -4.742 68.36 -4.742 Q68.36 -4.742 68.36 -4.742 V-40.868 Q68.36 -40.868 68.36 -40.868 Q68.36 -40.868 68.36 -40.868 H57.35 V-49.054 H68.36 Q71.79 -49.054 74.168 -46.663 Q76.546 -44.27 76.546 -40.868 V-4.742 Q76.546 -1.341 74.152 1.051 Q71.759 3.444 68.356 3.444 H26.292 Z M43.247 -20.203 V-63.117 L37.625 -57.496 L31.841 -63.256 L47.34 -78.78 L62.839 -63.256 L57.055 -57.496 L51.433 -63.117 V-20.203 H43.247 Z"/></g><g id="Regular-S" transform="matrix(1 0 0 1 1405.73 696)"><path d="M26.009 2.642 Q23.078 2.642 21.007 0.556 Q18.936 -1.53 18.936 -4.459 V-42.331 Q18.936 -45.26 21.022 -47.346 Q23.108 -49.432 26.037 -49.432 H37.872 V-42.331 H26.037 Q26.037 -42.331 26.037 -42.331 Q26.037 -42.331 26.037 -42.331 V-4.459 Q26.037 -4.459 26.037 -4.459 Q26.037 -4.459 26.037 -4.459 H68.643 Q68.643 -4.459 68.643 -4.459 Q68.643 -4.459 68.643 -4.459 V-42.331 Q68.643 -42.331 68.643 -42.331 Q68.643 -42.331 68.643 -42.331 H56.808 V-49.432 H68.643 Q71.602 -49.432 73.673 -47.346 Q75.744 -45.26 75.744 -42.331 V-4.459 Q75.744 -1.53 73.657 0.556 Q71.57 2.642 68.639 2.642 H26.009 Z M43.79 -21.028 V-64.226 L38.168 -58.604 L33.138 -63.634 L47.34 -77.836 L61.542 -63.634 L56.512 -58.604 L50.891 -64.226 V-21.028 H43.79 Z"/></g><g id="Light-S" transform="matrix(1 0 0 1 1109.75 696)"><path d="M27.223 0.67 Q24.558 0.67 22.733 -1.17 Q20.909 -3.009 20.909 -5.673 V-41.117 Q20.909 -43.781 22.748 -45.62 Q24.587 -47.459 27.251 -47.459 H37.34 V-42.331 H27.251 Q26.795 -42.331 26.417 -41.951 Q26.037 -41.573 26.037 -41.117 V-5.673 Q26.037 -5.217 26.417 -4.839 Q26.795 -4.459 27.251 -4.459 H67.429 Q67.885 -4.459 68.263 -4.839 Q68.643 -5.217 68.643 -5.673 V-41.117 Q68.643 -41.573 68.263 -41.951 Q67.885 -42.331 67.429 -42.331 H57.34 V-47.459 H67.429 Q70.122 -47.459 71.947 -45.62 Q73.772 -43.781 73.772 -41.117 V-5.673 Q73.772 -3.009 71.931 -1.17 Q70.091 0.67 67.425 0.67 H27.223 Z M44.776 -22.014 V-64.643 L38.168 -58.035 L34.504 -61.661 L47.34 -74.498 L60.176 -61.661 L56.512 -58.035 L49.904 -64.643 V-22.014 H44.776 Z"/></g><g id="Thin-S" transform="matrix(1 0 0 1 814.015 696)"><path d="M28.437 -1.303 Q26.037 -1.303 24.459 -2.896 Q22.881 -4.489 22.881 -6.887 V-39.903 Q22.881 -42.301 24.474 -43.894 Q26.067 -45.487 28.465 -45.487 H36.81 V-42.331 H28.465 Q27.554 -42.331 26.795 -41.573 Q26.037 -40.814 26.037 -39.903 V-6.887 Q26.037 -5.976 26.795 -5.217 Q27.554 -4.459 28.465 -4.459 H66.215 Q67.126 -4.459 67.885 -5.217 Q68.643 -5.976 68.643 -6.887 V-39.903 Q68.643 -40.814 67.885 -41.573 Q67.126 -42.331 66.215 -42.331 H57.87 V-45.487 H66.215 Q68.643 -45.487 70.221 -43.894 Q71.799 -42.301 71.799 -39.903 V-6.887 Q71.799 -4.489 70.205 -2.896 Q68.611 -1.303 66.211 -1.303 H28.437 Z M45.762 -23 V-65.06 L38.168 -57.466 L35.869 -59.689 L47.34 -71.16 L58.811 -59.689 L56.512 -57.466 L48.918 -65.06 V-23 H45.762 Z"/></g><g id="Ultralight-S" transform="matrix(1 0 0 1 517.792 696)"><path d="M29.165 -2.486 Q26.925 -2.486 25.495 -3.931 Q24.065 -5.376 24.065 -7.615 V-39.175 Q24.065 -41.414 25.509 -42.859 Q26.954 -44.303 29.193 -44.303 H36.491 V-42.331 H29.193 Q28.01 -42.331 27.023 -41.345 Q26.037 -40.358 26.037 -39.175 V-7.615 Q26.037 -6.431 27.023 -5.445 Q28.01 -4.459 29.193 -4.459 H65.487 Q66.671 -4.459 67.657 -5.445 Q68.643 -6.431 68.643 -7.615 V-39.175 Q68.643 -40.358 67.657 -41.345 Q66.671 -42.331 65.487 -42.331 H58.189 V-44.303 H65.487 Q67.755 -44.303 69.185 -42.859 Q70.615 -41.414 70.615 -39.175 V-7.615 Q70.615 -5.376 69.17 -3.931 Q67.724 -2.486 65.483 -2.486 H29.165 Z M46.354 -23.592 V-65.311 L38.168 -57.125 L36.689 -58.505 L47.34 -69.157 L57.992 -58.505 L56.512 -57.125 L48.326 -65.311 V-23.592 H46.354 Z"/></g></g></svg>